<?xml version="1.0" encoding="UTF-8"?><svg xmlns="http://www.w3.org/2000/svg" xmlns:xlink="http://www.w3.org/1999/xlink" height="473.0" preserveAspectRatio="xMidYMid meet" version="1.0" viewBox="71.2 17.1 391.2 473.0" width="391.2" zoomAndPan="magnify"><g><g id="change1_1"><path d="M 260.105469 309.375 C 260.105469 309.375 268.65625 294.152344 277.21875 286.265625 C 285.777344 278.375 304.269531 259.28125 342.382812 250.984375 L 362.6875 255.726562 C 362.6875 255.726562 281.394531 299.648438 272.457031 309.101562 C 272.457031 309.101562 258.160156 310.621094 246.636719 309.171875 L 154.605469 272.558594 L 175.179688 262.136719 C 175.179688 262.136719 207.785156 268.367188 228.457031 281.132812 C 249.128906 293.890625 260.105469 309.375 260.105469 309.375" fill="#fff"/></g><g id="change1_2"><path d="M 242.6875 274.898438 C 242.6875 274.898438 257.589844 286.273438 259.546875 285.644531 C 261.507812 285.007812 272.738281 273.636719 272.738281 273.636719 L 270.265625 246.082031 C 270.265625 246.082031 291.722656 240.664062 302.035156 232.363281 C 312.355469 224.0625 325.59375 214.40625 336.410156 189.398438 C 336.410156 189.398438 353.785156 185.695312 360.101562 180.332031 C 366.417969 174.964844 376.742188 166.148438 373.386719 149.199219 C 370.03125 132.253906 338.074219 129.074219 338.074219 129.074219 L 285.566406 106.261719 L 215.679688 68.71875 L 173.632812 115.621094 C 173.632812 115.621094 134.714844 133.773438 128.667969 145.628906 C 122.617188 157.480469 120.234375 165.171875 130.023438 180.945312 C 139.8125 196.722656 153.207031 191.796875 156.414062 189.398438 C 156.414062 189.398438 169.058594 226.960938 209.652344 241.925781 C 209.652344 241.925781 228.765625 249.492188 239.675781 249.371094 L 242.6875 274.898438" fill="#fff"/></g><g id="change1_3"><path d="M 128.644531 410.914062 C 128.644531 410.914062 119.777344 395.996094 96.144531 397.691406 C 96.144531 397.691406 74.214844 409.847656 74.605469 421.285156 C 75 432.726562 71.167969 447.6875 105.054688 456.648438 C 138.941406 465.613281 171.4375 464.191406 188.667969 463.621094 C 205.894531 463.054688 243.402344 461.332031 259.972656 464.15625 C 276.539062 466.980469 328.257812 463.785156 335.59375 463.785156 C 342.929688 463.78125 368.074219 464.699219 397.785156 457.210938 C 427.5 449.71875 446.703125 440.832031 453.199219 427.445312 C 459.695312 414.058594 458.988281 392.140625 421.949219 384.351562 C 421.949219 384.351562 395.515625 393.90625 385.015625 409.179688 C 385.015625 409.179688 320.164062 408.71875 274.488281 446.234375 L 247.6875 446.707031 L 169.152344 414.554688 C 169.152344 414.554688 154.214844 405.324219 128.644531 410.914062" fill="#fff"/></g><g id="change1_4"><path d="M 372.472656 323.980469 C 372.472656 323.980469 381.0625 343.304688 374.414062 360.265625 C 374.414062 360.265625 361.949219 364.097656 351.285156 340.148438 C 351.285156 340.148438 346.136719 327.722656 348.257812 315.039062 C 348.257812 315.039062 363.519531 317.394531 372.472656 323.980469" fill="#fff"/></g><g id="change1_5"><path d="M 142.832031 328.980469 C 142.832031 328.980469 157.714844 318.75 167.054688 320.984375 C 167.054688 320.984375 169.433594 339.972656 157.300781 357.03125 C 157.300781 357.03125 147.476562 368.042969 139.851562 364.519531 C 139.851562 364.519531 135.011719 346.472656 142.832031 328.980469" fill="#fff"/></g><g id="change2_1"><path d="M 242.6875 274.898438 L 258.804688 285.757812 C 258.804688 285.757812 260.5625 286.964844 272.738281 273.636719 C 272.738281 273.636719 281.367188 270.660156 288.242188 276.082031 C 288.242188 276.082031 263.65625 298.363281 260.105469 309.375 C 260.105469 309.375 245.78125 290.066406 226.464844 279.886719 C 226.464844 279.886719 233.925781 273.074219 242.6875 274.898438" fill="#a1b5cc"/></g><g id="change2_2"><path d="M 96.144531 397.691406 C 96.144531 397.691406 117.117188 395.246094 128.644531 410.914062 C 128.644531 410.914062 146.289062 405.148438 165.742188 413.152344 C 185.199219 421.160156 247.6875 446.707031 247.6875 446.707031 L 272.738281 446.234375 L 274.488281 446.234375 C 274.488281 446.234375 295.234375 430.019531 306.804688 425.976562 C 306.804688 425.976562 327.914062 417.269531 340.96875 414.691406 C 354.023438 412.113281 370.714844 409 385.609375 409.378906 C 385.609375 409.378906 395.765625 393.421875 423.796875 384.730469 C 423.796875 384.730469 404.441406 380.152344 385.015625 384.730469 C 365.59375 389.308594 351.007812 393.855469 342.960938 399.46875 L 371.378906 380.347656 L 371.09375 360.628906 C 371.09375 360.628906 361.328125 361.28125 353.902344 345.027344 C 346.476562 328.777344 348.007812 319.992188 348.257812 315.039062 C 348.257812 315.039062 365.222656 318.445312 370.203125 322.460938 L 367.855469 253.15625 L 318.894531 280.179688 L 272.457031 309.101562 L 246.636719 309.171875 C 246.636719 309.171875 152.183594 272.949219 145.871094 268.5 L 148.652344 325.414062 C 148.652344 325.414062 166.246094 317.265625 167.191406 321.328125 C 168.132812 325.390625 167.390625 352.699219 149.140625 363.894531 C 149.140625 363.894531 149.335938 384.121094 149.335938 384.214844 C 149.335938 384.308594 119.21875 382.101562 96.144531 397.691406" fill="#a1b5cc"/></g><g id="change3_1"><path d="M 436.21875 442.1875 C 421.484375 450.425781 403.851562 455.226562 387.386719 458.558594 C 387.246094 458.585938 387.105469 458.613281 386.964844 458.640625 C 388.378906 441.972656 385.089844 425.511719 377.4375 410.636719 C 382.148438 410.414062 386.855469 410.335938 391.546875 410.429688 C 392.835938 410.457031 392.835938 408.457031 391.546875 408.429688 C 390.042969 408.398438 388.539062 408.402344 387.03125 408.40625 C 396.933594 397.390625 409.847656 389.824219 424.0625 385.695312 C 424.097656 385.683594 424.117188 385.664062 424.148438 385.648438 C 433.285156 387.566406 441.875 391.253906 448.085938 397.863281 C 454.355469 404.539062 457.207031 413.699219 454.242188 422.558594 C 451.292969 431.371094 444.128906 437.765625 436.21875 442.1875 Z M 329.378906 462.496094 C 326.058594 459.804688 321.574219 457.757812 318.605469 456.234375 C 305.792969 449.667969 291.394531 445.929688 277.003906 445.316406 C 282.960938 441.101562 288.984375 436.980469 295.042969 432.914062 C 319.558594 419.570312 347.382812 412.363281 375.285156 410.753906 C 375.304688 410.792969 375.300781 410.832031 375.320312 410.871094 C 383.15625 425.753906 386.429688 442.296875 384.9375 459.03125 C 366.617188 462.484375 347.984375 463.226562 329.378906 462.496094 Z M 139.9375 461.886719 C 139.574219 461.851562 139.210938 461.8125 138.847656 461.777344 C 131.449219 444.953125 132.867188 426.535156 141.328125 410.355469 C 149.449219 410.097656 157.632812 411.332031 165.4375 414.105469 C 192.648438 425.421875 219.9375 436.597656 247.261719 447.605469 C 247.265625 447.605469 247.269531 447.605469 247.269531 447.609375 C 247.320312 447.628906 247.371094 447.648438 247.421875 447.667969 C 247.609375 447.746094 247.773438 447.746094 247.925781 447.71875 C 248.585938 447.738281 249.242188 447.769531 249.902344 447.808594 C 255.332031 449.980469 257.304688 457.714844 254.785156 462.558594 C 254.757812 462.605469 254.761719 462.652344 254.742188 462.699219 C 238.570312 461.394531 222.363281 461.644531 206.152344 462.125 C 205.996094 462.074219 205.824219 462.046875 205.632812 462.089844 C 205.542969 462.109375 205.449219 462.128906 205.363281 462.148438 C 183.542969 462.800781 161.714844 463.808594 139.9375 461.886719 Z M 109.714844 456.886719 C 101.09375 454.675781 91.445312 452.101562 84.148438 446.796875 C 76.652344 441.347656 74.484375 431.203125 75.476562 422.332031 C 76.558594 412.644531 85.777344 405.96875 93.328125 400.914062 C 94.359375 400.222656 95.402344 399.554688 96.460938 398.910156 C 107.640625 397.929688 119.960938 401.175781 126.988281 410.367188 C 121.535156 411.734375 116.226562 413.769531 111.214844 416.492188 C 110.082031 417.109375 111.089844 418.835938 112.222656 418.222656 C 120.582031 413.683594 129.746094 411.09375 139.050781 410.472656 C 130.941406 426.664062 129.652344 444.773438 136.613281 461.5625 C 127.550781 460.632812 118.542969 459.152344 109.714844 456.886719 Z M 148.265625 385.285156 C 148.1875 392.273438 148.070312 399.265625 148.164062 406.253906 C 148.167969 406.65625 148.378906 406.917969 148.648438 407.066406 C 148.722656 407.125 148.800781 407.175781 148.898438 407.214844 C 150.359375 407.828125 151.828125 408.4375 153.292969 409.046875 C 145.242188 407.863281 137.042969 408.15625 129.109375 409.878906 C 122.515625 400.742188 111.253906 396.703125 100.234375 396.742188 C 114.855469 388.765625 131.632812 384.847656 148.265625 385.285156 Z M 161.179688 352.476562 C 166.328125 343.78125 168.703125 333.757812 168.308594 323.726562 C 168.386719 323.507812 168.367188 323.285156 168.277344 323.085938 C 168.226562 322.070312 168.15625 321.054688 168.046875 320.039062 C 167.996094 319.546875 167.632812 318.980469 167.046875 319.039062 C 160.875 319.683594 155.050781 321.324219 149.589844 323.9375 C 148.832031 305.984375 147.976562 288.039062 146.960938 270.101562 C 179.109375 285.203125 213.101562 295.664062 245.640625 309.824219 C 245.914062 354.957031 245.914062 400.09375 246.664062 445.21875 C 219.734375 434.367188 192.847656 423.351562 166.027344 412.203125 C 166.019531 412.199219 166.019531 412.191406 166.007812 412.191406 C 165.996094 412.1875 165.980469 412.183594 165.96875 412.175781 C 160.695312 409.984375 155.425781 407.792969 150.160156 405.59375 C 150.082031 398.566406 150.195312 391.539062 150.273438 384.515625 C 150.289062 384.40625 150.289062 384.296875 150.277344 384.1875 C 150.347656 377.476562 150.375 370.769531 150.144531 364.0625 C 154.765625 361.613281 158.46875 357.050781 161.179688 352.476562 Z M 140.699219 363.660156 C 138.339844 352.058594 138.84375 340.609375 143.625 329.652344 C 148.886719 326.074219 154.636719 323.410156 160.867188 322.011719 C 161.828125 321.792969 165.292969 320.707031 166.21875 321.613281 C 166.351562 321.746094 166.421875 322.242188 166.449219 322.863281 C 161.050781 327.75 153.617188 329.886719 146.996094 332.535156 C 145.816406 333.011719 146.332031 334.945312 147.527344 334.464844 C 153.925781 331.902344 160.941406 329.785156 166.441406 325.472656 C 166.429688 325.890625 166.414062 326.21875 166.414062 326.351562 C 166.410156 327.347656 166.363281 328.335938 166.296875 329.324219 C 160.453125 334.996094 153.609375 339.089844 145.839844 341.539062 C 144.617188 341.925781 145.140625 343.855469 146.371094 343.46875 C 153.710938 341.152344 160.292969 337.398438 165.996094 332.3125 C 165.824219 333.644531 165.609375 334.976562 165.332031 336.289062 C 165.136719 337.203125 164.898438 338.179688 164.617188 339.195312 C 164.5625 339.238281 164.503906 339.261719 164.453125 339.324219 C 159.65625 345.058594 152.746094 349.070312 145.605469 351.121094 C 144.371094 351.476562 144.894531 353.40625 146.136719 353.050781 C 152.390625 351.253906 158.480469 348.011719 163.246094 343.484375 C 159.484375 353.882812 151.878906 365.816406 140.699219 363.660156 Z M 175.28125 263.1875 C 191.257812 267.066406 207.375 271.304688 222.09375 278.792969 C 236.285156 286.011719 248.171875 296.308594 258.179688 308.582031 C 254.410156 308.570312 250.640625 308.445312 246.855469 308.183594 C 217.121094 295.230469 186.171875 285.378906 156.519531 272.269531 C 162.808594 269.3125 168.980469 266.117188 175.28125 263.1875 Z M 237.019531 276.257812 C 237.039062 276.363281 237.066406 276.472656 237.132812 276.585938 C 240.042969 281.640625 244.316406 285.445312 247.800781 290.066406 C 247.824219 290.101562 247.855469 290.128906 247.882812 290.15625 C 248.085938 290.476562 248.453125 290.679688 248.929688 290.527344 C 252.5 289.40625 256.121094 288.480469 259.652344 287.226562 C 259.660156 287.226562 259.660156 287.222656 259.667969 287.21875 C 262.296875 289.21875 265.175781 290.570312 268.230469 291.796875 C 268.71875 291.992188 269.082031 291.777344 269.273438 291.433594 C 269.300781 291.394531 269.335938 291.378906 269.359375 291.335938 C 272.523438 285.789062 275.109375 280.023438 277.414062 274.078125 C 280.726562 273.933594 283.726562 274.5 286.867188 276.390625 C 276.375 284.988281 267.289062 295.410156 259.980469 307.640625 C 251.003906 296.53125 240.492188 287.003906 228.191406 279.84375 C 230.992188 277.886719 233.878906 276.773438 237.019531 276.257812 Z M 242.382812 275.894531 C 245.867188 278.257812 249.351562 280.625 252.835938 282.988281 C 254.039062 283.804688 255.472656 285.136719 256.96875 286.015625 C 254.332031 286.863281 251.664062 287.597656 249.015625 288.410156 C 245.742188 284.21875 241.871094 280.589844 239.121094 275.996094 C 240.175781 275.910156 241.261719 275.878906 242.382812 275.894531 Z M 261.828125 249.054688 C 264.347656 248.613281 266.855469 248.085938 269.347656 247.480469 C 269.804688 256.109375 270.605469 264.695312 271.695312 273.269531 C 269.703125 275.289062 267.707031 277.308594 265.714844 279.324219 C 263.308594 281.761719 261.289062 285.367188 257.648438 283.84375 C 252.816406 281.816406 248 277.378906 243.625 274.332031 C 242.742188 266.296875 241.664062 258.28125 240.777344 250.242188 C 247.703125 250.664062 254.742188 250.304688 261.828125 249.054688 Z M 154.152344 178.882812 C 151.128906 166.976562 149.710938 153.609375 151.648438 141.367188 C 151.671875 141.214844 151.65625 141.078125 151.632812 140.945312 C 183.292969 130.320312 209.648438 106.722656 223.664062 76.460938 C 227.753906 110.910156 255.464844 137.515625 290.453125 140.113281 C 290.820312 140.144531 291.070312 139.988281 291.230469 139.765625 C 291.457031 139.554688 291.574219 139.246094 291.417969 138.851562 C 287.976562 130.214844 287.328125 121.8125 290.398438 113.171875 C 296.300781 121.765625 303.089844 129.863281 311.832031 135.695312 C 320.769531 141.65625 331.054688 144.445312 341.65625 145.355469 C 343.28125 170.867188 335.476562 196.179688 318.773438 215.707031 C 305.757812 230.929688 288.636719 240.101562 269.414062 245.097656 C 220.988281 257.6875 166.632812 227.988281 154.152344 178.882812 Z M 124.238281 162.496094 C 124.15625 155.167969 127.398438 147.566406 132.539062 142.320312 C 135.023438 139.785156 137.355469 138.628906 140.945312 138.339844 C 143.960938 138.097656 148.507812 137.664062 149.386719 141.429688 C 146.976562 157.441406 149.105469 173.984375 154.992188 189.023438 C 139.480469 197.066406 124.402344 176.796875 124.238281 162.496094 Z M 372.121094 163.585938 C 367.394531 178.058594 351.652344 185.636719 337.550781 188.195312 C 342.765625 174.394531 344.949219 159.441406 343.863281 144.449219 C 343.859375 144.429688 343.851562 144.417969 343.847656 144.398438 C 347.394531 135.984375 357.589844 134.492188 364.847656 139.324219 C 372.824219 144.636719 374.984375 154.832031 372.121094 163.585938 Z M 268.046875 289.5625 C 265.800781 288.628906 263.675781 287.558594 261.679688 286.1875 C 262.351562 285.679688 262.929688 284.976562 263.617188 284.292969 C 266.851562 281.082031 270.027344 277.808594 273.230469 274.5625 C 273.902344 274.445312 274.554688 274.347656 275.195312 274.269531 C 273.125 279.527344 270.804688 284.628906 268.046875 289.5625 Z M 272.121094 308.125 C 268.660156 308.355469 265.210938 308.503906 261.761719 308.558594 C 279.726562 278.566406 308.511719 259.773438 342.386719 252.011719 C 348.40625 253.417969 354.425781 254.824219 360.445312 256.226562 C 330.667969 273.042969 300.164062 288.390625 272.121094 308.125 Z M 272.230469 310.117188 C 272.308594 310.140625 272.394531 310.144531 272.480469 310.140625 C 272.898438 355.195312 272.910156 400.253906 272.980469 445.308594 C 264.867188 445.964844 256.804688 445.820312 248.671875 445.71875 C 247.914062 400.558594 247.914062 355.394531 247.644531 310.230469 C 255.855469 310.761719 264.015625 310.671875 272.230469 310.117188 Z M 369.136719 320.726562 C 362.714844 317.050781 355.742188 314.820312 348.257812 314.039062 C 347.679688 313.980469 347.3125 314.550781 347.257812 315.039062 C 346.105469 325.78125 348.148438 336.605469 353.347656 346.101562 C 356.851562 352.511719 362.554688 360.277344 370.101562 361.386719 C 370.214844 367.535156 370.304688 373.6875 370.371094 379.835938 C 363.089844 385.058594 355.234375 389.375 347.972656 394.648438 C 339.949219 400.476562 331.765625 406.070312 323.527344 411.585938 C 313.714844 418.148438 303.832031 424.605469 294.03125 431.1875 C 293.980469 431.214844 293.921875 431.242188 293.867188 431.273438 C 293.808594 431.304688 293.777344 431.351562 293.730469 431.390625 C 287.429688 435.621094 281.167969 439.910156 274.980469 444.308594 C 274.90625 399.179688 274.894531 354.050781 274.472656 308.925781 C 303.863281 288.441406 335.882812 272.640625 366.898438 254.855469 C 367.351562 276.820312 368.308594 298.773438 369.136719 320.726562 Z M 373.636719 359.382812 C 361.089844 361.523438 352.71875 342.980469 350.152344 332.074219 C 354.234375 337.917969 359.175781 343.058594 364.890625 347.398438 C 365.914062 348.175781 366.910156 346.441406 365.898438 345.671875 C 359.285156 340.648438 353.742188 334.453125 349.441406 327.351562 C 349.398438 327.28125 349.34375 327.242188 349.292969 327.1875 C 349.109375 325.714844 348.984375 324.230469 348.933594 322.746094 C 353.589844 328.816406 359.203125 333.96875 365.703125 338.078125 C 366.792969 338.769531 367.800781 337.039062 366.710938 336.351562 C 359.734375 331.9375 353.78125 326.289062 349.03125 319.539062 C 348.972656 319.453125 348.90625 319.390625 348.835938 319.332031 C 348.78125 318.265625 348.753906 316.902344 349.089844 316.613281 C 349.378906 316.363281 349.90625 316.292969 350.511719 316.304688 C 350.535156 316.34375 350.546875 316.386719 350.578125 316.421875 C 356.0625 322.570312 362.152344 328.820312 369.449219 332.800781 C 370.578125 333.414062 371.589844 331.691406 370.460938 331.074219 C 364.027344 327.5625 358.570312 322.234375 353.625 316.8125 C 353.949219 316.894531 354.242188 316.964844 354.4375 317.011719 C 360.660156 318.402344 366.410156 321.070312 371.660156 324.640625 C 376.160156 335.886719 377.257812 347.75 373.636719 359.382812 Z M 419.960938 384.894531 C 406.234375 389.496094 393.808594 397.320312 384.355469 408.417969 C 358.085938 408.785156 331.585938 414.074219 307.480469 424.628906 C 313.171875 420.863281 318.863281 417.105469 324.535156 413.3125 C 331.671875 408.535156 338.757812 403.6875 345.742188 398.695312 C 345.921875 398.714844 346.109375 398.699219 346.304688 398.601562 C 362.488281 390.332031 380.101562 384.894531 398.320312 384.003906 C 405.09375 383.675781 412.609375 383.78125 419.960938 384.894531 Z M 453.714844 402.03125 C 447.394531 391.402344 436.078125 386.257812 424.246094 383.839844 C 424.113281 383.765625 423.953125 383.738281 423.777344 383.746094 C 418.796875 382.757812 413.738281 382.246094 408.933594 382.007812 C 390.207031 381.074219 371.726562 385.183594 354.597656 392.519531 C 360.359375 388.746094 366.300781 385.261719 371.882812 381.210938 C 371.917969 381.183594 371.945312 381.152344 371.976562 381.125 C 372.210938 380.96875 372.382812 380.71875 372.378906 380.347656 C 372.3125 374.070312 372.21875 367.792969 372.105469 361.519531 C 372.941406 361.507812 373.800781 361.417969 374.679688 361.226562 C 375.09375 361.140625 375.296875 360.867188 375.363281 360.5625 C 375.367188 360.546875 375.375 360.542969 375.378906 360.527344 C 379.378906 348.257812 378.273438 335.582031 373.4375 323.714844 C 373.402344 323.628906 373.355469 323.554688 373.308594 323.484375 C 373.234375 323.347656 373.128906 323.222656 372.980469 323.117188 C 372.390625 322.710938 371.785156 322.339844 371.1875 321.960938 C 370.324219 299.03125 369.300781 276.101562 368.855469 253.15625 C 368.855469 253.105469 368.832031 253.070312 368.824219 253.023438 C 368.824219 253.023438 368.824219 253.019531 368.824219 253.019531 C 368.78125 252.742188 368.652344 252.53125 368.464844 252.394531 C 368.210938 252.175781 367.855469 252.09375 367.480469 252.25 C 367.476562 252.253906 367.46875 252.253906 367.460938 252.257812 C 367.425781 252.273438 367.386719 252.269531 367.351562 252.292969 C 365.902344 253.128906 364.449219 253.953125 362.996094 254.777344 C 362.980469 254.773438 362.972656 254.765625 362.953125 254.761719 C 356.1875 253.183594 349.417969 251.601562 342.648438 250.019531 C 342.621094 250.015625 342.597656 250.023438 342.570312 250.019531 C 342.519531 250.007812 342.464844 250.015625 342.40625 250.015625 C 342.332031 250.015625 342.257812 250.003906 342.1875 250.019531 C 342.160156 250.023438 342.144531 250.015625 342.117188 250.019531 C 322.144531 254.558594 303.894531 262.917969 288.515625 275.070312 C 283.679688 271.898438 279.082031 271.636719 273.605469 272.484375 C 272.542969 264.003906 271.757812 255.507812 271.316406 246.96875 C 287.707031 242.679688 303.265625 234.792969 315.28125 222.796875 C 324.660156 213.429688 331.84375 202.363281 336.703125 190.359375 C 354.933594 187.449219 377.730469 174.667969 375.230469 153.066406 C 374.476562 146.5625 370.648438 140.429688 365.050781 137.113281 C 366.144531 115.574219 362.828125 92.835938 353.433594 73.269531 C 341.65625 48.730469 318.714844 32.566406 293.214844 24.507812 C 277.800781 19.636719 260.945312 17.113281 245.371094 22.605469 C 239.011719 18.964844 232.566406 18.109375 226.078125 18.742188 C 214.21875 18.25 197.652344 21.628906 178.652344 36.984375 C 176.792969 38.234375 174.960938 39.566406 173.160156 41.011719 C 152.648438 57.464844 138.40625 82.738281 132.015625 108.050781 C 129.324219 118.695312 129.691406 129.027344 132.117188 139.625 C 126.785156 144.175781 123.269531 152.492188 122.484375 158.464844 C 120.285156 175.195312 137.453125 200.214844 155.738281 190.890625 C 162.191406 206.414062 172.683594 220.214844 186.351562 229.980469 C 202.09375 241.230469 219.988281 248.542969 238.761719 250.101562 C 239.632812 258.035156 240.695312 265.953125 241.574219 273.890625 C 235.808594 273.921875 230.992188 275.289062 226.304688 278.773438 C 225.25 278.1875 224.183594 277.613281 223.105469 277.0625 C 208.113281 269.4375 191.714844 265.117188 175.445312 261.171875 C 175.199219 261.109375 174.988281 261.15625 174.808594 261.238281 C 174.761719 261.253906 174.71875 261.25 174.675781 261.269531 C 167.765625 264.464844 161.027344 268.007812 154.121094 271.203125 C 151.527344 270.039062 148.945312 268.855469 146.375 267.636719 C 146.199219 267.550781 146.027344 267.535156 145.867188 267.542969 C 145.382812 267.523438 144.921875 267.804688 144.890625 268.378906 C 144.851562 268.527344 144.851562 268.675781 144.890625 268.816406 C 145.957031 287.507812 146.847656 306.207031 147.632812 324.910156 C 145.898438 325.828125 144.203125 326.847656 142.550781 327.972656 C 142.316406 328.019531 142.101562 328.171875 141.96875 328.476562 C 136.800781 340.195312 136.253906 352.34375 138.886719 364.78125 C 138.894531 364.820312 138.914062 364.839844 138.925781 364.875 C 138.945312 364.945312 138.976562 365.015625 139.015625 365.082031 C 139.058594 365.152344 139.105469 365.210938 139.164062 365.265625 C 139.183594 365.28125 139.203125 365.300781 139.230469 365.316406 C 139.324219 365.390625 139.425781 365.4375 139.542969 365.460938 C 139.558594 365.46875 139.566406 365.476562 139.585938 365.480469 C 142.695312 366.210938 145.5625 365.925781 148.167969 364.953125 C 148.355469 371.0625 148.34375 377.175781 148.285156 383.285156 C 130.398438 382.808594 112.371094 387.296875 96.898438 396.320312 C 89.695312 400.519531 81.644531 406.070312 76.714844 412.917969 C 72.394531 418.929688 72.867188 427.3125 74.265625 434.199219 C 77.988281 452.59375 100.523438 457.167969 116.253906 460.460938 C 123.371094 461.949219 130.554688 462.980469 137.773438 463.679688 C 137.921875 463.734375 138.074219 463.757812 138.234375 463.722656 C 152.839844 465.113281 167.589844 465.152344 182.238281 464.796875 C 187.105469 464.679688 191.972656 464.527344 196.839844 464.371094 C 191.613281 466.175781 186.855469 469.03125 184.703125 474.402344 C 181.847656 481.542969 186 488.222656 193.472656 489.367188 C 198.425781 490.128906 203.511719 488.402344 208.195312 487.019531 C 214.058594 485.28125 219.851562 483.3125 225.542969 481.070312 C 236.613281 476.707031 247.203125 471.3125 257.238281 464.917969 C 259.371094 465.113281 261.503906 465.328125 263.636719 465.582031 C 271.574219 466.988281 279.535156 468.273438 287.488281 469.601562 C 294.113281 470.707031 300.738281 471.808594 307.367188 472.890625 C 313.367188 473.871094 319.894531 475.71875 325.992188 475.632812 C 330.515625 475.570312 335.222656 472.371094 333.277344 467.347656 C 332.898438 466.363281 332.304688 465.4375 331.558594 464.570312 C 350.167969 465.183594 368.789062 464.269531 387.09375 460.652344 C 396.996094 458.691406 406.734375 455.988281 416.273438 452.6875 C 424.914062 449.699219 433.863281 446.492188 441.476562 441.3125 C 454.359375 432.542969 462.382812 416.613281 453.714844 402.03125" fill="#100f0d"/></g></g></svg>